<svg xmlns="http://www.w3.org/2000/svg" viewBox="0 0 200 60" width="200" height="60">
  <defs>
    <linearGradient id="grad1" x1="0%" y1="0%" x2="100%" y2="0%">
      <stop offset="0%" style="stop-color:#2563eb;stop-opacity:1" />
      <stop offset="100%" style="stop-color:#0ea5e9;stop-opacity:1" />
    </linearGradient>
  </defs>
  <!-- Building icon -->
  <rect x="5" y="15" width="12" height="35" rx="2" fill="url(#grad1)"/>
  <rect x="20" y="25" width="10" height="25" rx="2" fill="#2563eb" opacity="0.8"/>
  <rect x="32" y="20" width="8" height="30" rx="2" fill="#0ea5e9" opacity="0.9"/>
  <!-- Windows -->
  <rect x="7" y="18" width="3" height="4" rx="1" fill="white" opacity="0.6"/>
  <rect x="12" y="18" width="3" height="4" rx="1" fill="white" opacity="0.6"/>
  <rect x="7" y="25" width="3" height="4" rx="1" fill="white" opacity="0.6"/>
  <rect x="12" y="25" width="3" height="4" rx="1" fill="white" opacity="0.6"/>
  <rect x="7" y="32" width="3" height="4" rx="1" fill="white" opacity="0.6"/>
  <rect x="12" y="32" width="3" height="4" rx="1" fill="white" opacity="0.6"/>
  <rect x="22" y="28" width="3" height="3" rx="1" fill="white" opacity="0.6"/>
  <rect x="27" y="28" width="3" height="3" rx="1" fill="white" opacity="0.6"/>
  <rect x="34" y="23" width="2" height="3" rx="1" fill="white" opacity="0.6"/>
  <rect x="37" y="23" width="2" height="3" rx="1" fill="white" opacity="0.6"/>
  <!-- Text -->
  <text x="48" y="38" font-family="Inter, -apple-system, sans-serif" font-size="28" font-weight="800" fill="#1f2937">URCity</text>
  <text x="48" y="50" font-family="Inter, -apple-system, sans-serif" font-size="9" font-weight="500" fill="#6b7280" letter-spacing="0.5">FIND YOUR CITY</text>
</svg>