<svg xmlns="http://www.w3.org/2000/svg" viewBox="0 0 1200 630" width="1200" height="630">
  <defs>
    <linearGradient id="bg" x1="0%" y1="0%" x2="100%" y2="100%">
      <stop offset="0%" style="stop-color:#0f172a;stop-opacity:1" />
      <stop offset="100%" style="stop-color:#1e3a5f;stop-opacity:1" />
    </linearGradient>
    <linearGradient id="accent" x1="0%" y1="0%" x2="100%" y2="0%">
      <stop offset="0%" style="stop-color:#2563eb;stop-opacity:1" />
      <stop offset="100%" style="stop-color:#0ea5e9;stop-opacity:1" />
    </linearGradient>
  </defs>
  <rect width="1200" height="630" fill="url(#bg)"/>
  <!-- City skyline silhouette -->
  <rect x="50" y="400" width="30" height="180" rx="3" fill="#2563eb" opacity="0.3"/>
  <rect x="90" y="350" width="25" height="230" rx="3" fill="#0ea5e9" opacity="0.25"/>
  <rect x="125" y="420" width="35" height="160" rx="3" fill="#2563eb" opacity="0.3"/>
  <rect x="170" y="380" width="20" height="200" rx="3" fill="#0ea5e9" opacity="0.2"/>
  <rect x="200" y="320" width="40" height="260" rx="3" fill="#2563eb" opacity="0.25"/>
  <rect x="250" y="410" width="28" height="170" rx="3" fill="#0ea5e9" opacity="0.3"/>
  <rect x="290" y="360" width="32" height="220" rx="3" fill="#2563eb" opacity="0.2"/>
  <rect x="330" y="430" width="25" height="150" rx="3" fill="#0ea5e9" opacity="0.25"/>
  <rect x="370" y="390" width="38" height="190" rx="3" fill="#2563eb" opacity="0.3"/>
  <rect x="420" y="340" width="22" height="240" rx="3" fill="#0ea5e9" opacity="0.2"/>
  <rect x="450" y="410" width="30" height="170" rx="3" fill="#2563eb" opacity="0.25"/>
  <rect x="490" y="370" width="26" height="210" rx="3" fill="#0ea5e9" opacity="0.3"/>
  <rect x="530" y="420" width="35" height="160" rx="3" fill="#2563eb" opacity="0.2"/>
  <rect x="580" y="350" width="28" height="230" rx="3" fill="#0ea5e9" opacity="0.25"/>
  <rect x="620" y="400" width="32" height="180" rx="3" fill="#2563eb" opacity="0.3"/>
  <rect x="660" y="330" width="25" height="250" rx="3" fill="#0ea5e9" opacity="0.2"/>
  <rect x="700" y="410" width="38" height="170" rx="3" fill="#2563eb" opacity="0.25"/>
  <rect x="750" y="380" width="30" height="200" rx="3" fill="#0ea5e9" opacity="0.3"/>
  <rect x="790" y="420" width="22" height="160" rx="3" fill="#2563eb" opacity="0.2"/>
  <rect x="820" y="360" width="35" height="220" rx="3" fill="#0ea5e9" opacity="0.25"/>
  <rect x="865" y="400" width="28" height="180" rx="3" fill="#2563eb" opacity="0.3"/>
  <rect x="905" y="340" width="32" height="240" rx="3" fill="#0ea5e9" opacity="0.2"/>
  <rect x="945" y="410" width="25" height="170" rx="3" fill="#2563eb" opacity="0.25"/>
  <rect x="980" y="370" width="38" height="210" rx="3" fill="#0ea5e9" opacity="0.3"/>
  <rect x="1030" y="430" width="30" height="150" rx="3" fill="#2563eb" opacity="0.2"/>
  <rect x="1070" y="390" width="26" height="190" rx="3" fill="#0ea5e9" opacity="0.25"/>
  <rect x="1110" y="410" width="35" height="170" rx="3" fill="#2563eb" opacity="0.3"/>
  <rect x="1150" y="380" width="28" height="200" rx="3" fill="#0ea5e9" opacity="0.2"/>
  <!-- Windows dots -->
  <circle cx="65" cy="420" r="2" fill="white" opacity="0.4"/>
  <circle cx="75" cy="420" r="2" fill="white" opacity="0.3"/>
  <circle cx="65" cy="440" r="2" fill="white" opacity="0.4"/>
  <circle cx="75" cy="440" r="2" fill="white" opacity="0.3"/>
  <circle cx="215" cy="340" r="2" fill="white" opacity="0.4"/>
  <circle cx="225" cy="340" r="2" fill="white" opacity="0.3"/>
  <circle cx="215" cy="360" r="2" fill="white" opacity="0.4"/>
  <circle cx="225" cy="360" r="2" fill="white" opacity="0.3"/>
  <!-- Main text -->
  <text x="600" y="200" font-family="Inter, -apple-system, sans-serif" font-size="72" font-weight="800" fill="white" text-anchor="middle">URCity</text>
  <text x="600" y="260" font-family="Inter, -apple-system, sans-serif" font-size="32" font-weight="400" fill="#94a3b8" text-anchor="middle">Find Your City. Know the True Cost.</text>
  <rect x="450" y="300" width="300" height="4" rx="2" fill="url(#accent)"/>
  <text x="600" y="340" font-family="Inter, -apple-system, sans-serif" font-size="20" font-weight="500" fill="#64748b" text-anchor="middle">Data-Driven City Comparison & Relocation Guides</text>
</svg>